<?xml version="1.0"?>
<svg xmlns="http://www.w3.org/2000/svg" xmlns:xlink="http://www.w3.org/1999/xlink" xmlns:svgjs="http://svgjs.com/svgjs" version="1.1" width="512" height="512" x="0" y="0" viewBox="0 0 512 512" style="enable-background:new 0 0 512 512" xml:space="preserve" class=""><g><path xmlns="http://www.w3.org/2000/svg" d="m461.2 118.7c-54.4 0-98.7-44.2-98.7-98.6 0-11-9-20-20-20h-76.2c-2.8 0-5.4.6-7.8 1.6-7.2 3-12.2 10.1-12.2 18.4v326.2c-.1 21.4-13.8 40.3-34.1 47-5.1 1.7-10.3 2.5-15.7 2.5-27.4 0-49.7-22.3-49.7-49.7s22.3-49.7 49.7-49.7c11 0 20-9 20-20v-76.2c0-11-9-20-20-20-44.3 0-86 17.2-117.3 48.6-31.2 31.3-48.4 72.9-48.4 117.2s17.2 86 48.5 117.3 73 48.6 117.3 48.6c8.3 0 16.7-.6 24.9-1.8 35.1-5.3 67.1-21.4 92.4-46.7 7.8-7.8 7.8-20.5 0-28.3s-20.5-7.8-28.3 0c-19.2 19.2-43.4 31.5-70 35.5-6.2.9-12.6 1.4-19 1.4-33.6 0-65.2-13.1-89-36.9s-36.9-55.4-36.9-89 13.1-65.2 36.9-89c19-19 43-31.2 69-35.3v36.8c-39.9 9.1-69.7 44.9-69.7 87.5 0 49.5 40.3 89.7 89.7 89.7 9.6 0 19.1-1.5 28.2-4.6 36.6-12.1 61.4-46.2 61.5-84.9v-306.2h37.7c8.8 60.4 56.8 108.4 117.3 117.1v36.5c-16.6-1.9-32.7-6.1-48.1-12.6-13.7-5.8-26.7-13.3-38.4-22.4-6-4.7-14.2-5.5-21-2.1s-11.2 10.3-11.2 17.9v172.2c0 11 9 20 20 20s20-9 20-20v-135.9c4.9 2.5 10 4.9 15.1 7.1 26.5 11.2 54.7 16.9 83.7 16.9 11 0 20-9 20-20v-76.2c-.2-11-9.1-19.9-20.2-19.9z" fill="#ffffff" data-original="#000000" style="" class=""/></g></svg>
